<?xml version="1.0" encoding="UTF-8"?>
<svg id="Calque_1" xmlns="http://www.w3.org/2000/svg" version="1.1" viewBox="0 0 595.3 595.3">
  <!-- Generator: Adobe Illustrator 29.1.0, SVG Export Plug-In . SVG Version: 2.1.0 Build 142)  -->
  <defs>
    <style>
      .st0 {
        fill: #fff;
      }
    </style>
  </defs>
  <path class="st0" d="M226.6,499.1c26.3-4.3,31.6-41,31.6-68.4l1-135.3s-22.4,41.9-28.8,70.8c-3.7,16.6-10.8,42-10.8,42l-49.8,8.7c-18.9,3.3-36.5-10.4-38-29.5l-9.3-119c-.7-9.1-2.5-18.1-5.7-26.6-6.7-17.6-18.1-32.1-34.3-44l28.2-83.4,52.2,64.6-.3.4c-12,17-11.5,37.5-8.4,58.3,1.7,12,25.7,128.3,25.7,128.3,4.4-36.7,28-77.4,52.9-104.6,13.4-14.6,25.4-24.9,25.4-89,.6-6.6,3.6-51.1-22.5-73.7l41.2-71.3,41.2,71.3c-26.1,22.6-23.1,67.1-22.5,73.7,0,64.1,12,74.4,25.4,89,24.9,27.3,48.5,67.9,52.9,104.6,0,0,24-118.6,24-128.5,0-21.1-5.8-42.4-17.8-59.4l-.3-.4,63.3-63.2,28.2,83.4c-16.2,11.9-27.6,26.3-34.3,44-3.2,8.5-5,17.5-5.7,26.6l-9.3,119c-1.5,19.1-19.1,32.8-38,29.5l-49.8-8.7s-7.5-25.4-10.9-42c-5.1-24.8-28.4-70.8-28.4-70.8l.7,69.1v81.4c-.2,13.6,10.9,24.7,24.5,24.7h49.8c28.3,0,54.9-2.8,75.9-21.4l67.2,42.6-67.4,42.7c-20.6-17.4-46.5-19.6-73.8-19.6h-44c-27.1,0-49.8,4.9-54.5,30.7l-69.1,22.5,22.5-68.9Z"/>
</svg>